<svg width="252" height="89" viewBox="0 0 252 89" fill="none" xmlns="http://www.w3.org/2000/svg">
<g filter="url(#filter0_i_1_713)">
<path d="M32.8838 26.5353C33.4567 26.2228 34.1077 25.9494 34.8369 25.715C35.5661 25.4546 36.3213 25.2593 37.1025 25.1291C37.8838 24.9728 38.665 24.8817 39.4463 24.8557C40.2536 24.8296 41.0088 24.8947 41.7119 25.051C43.7692 25.4937 45.501 26.34 46.9072 27.59C48.3135 28.84 49.3942 30.2984 50.1494 31.965C50.9307 33.6317 51.3864 35.4286 51.5166 37.3557C51.6729 39.2567 51.5166 41.0926 51.0479 42.8635C50.8916 43.3843 50.6312 43.9833 50.2666 44.6603C49.9541 45.2333 49.5244 45.9364 48.9775 46.7697C48.4307 47.577 47.7145 48.4754 46.8291 49.465C47.0374 49.9338 47.2458 50.3114 47.4541 50.5978C47.6885 50.8583 47.9098 51.0536 48.1182 51.1838C48.3525 51.34 48.5739 51.4442 48.7822 51.4963C48.9906 51.5223 49.238 51.5353 49.5244 51.5353C49.7588 51.5353 50.0322 51.5223 50.3447 51.4963C50.6833 51.4442 51.0479 51.3661 51.4385 51.2619L45.3447 56.34C45.2666 55.9234 45.1755 55.5588 45.0713 55.2463C44.9932 54.9598 44.9281 54.7124 44.876 54.5041L44.6416 53.9182C44.5374 53.7879 44.4333 53.6187 44.3291 53.4103C44.2249 53.2541 44.1077 53.0588 43.9775 52.8244C43.8473 52.59 43.6781 52.3296 43.4697 52.0432C41.8291 52.6682 40.3317 53.0718 38.9775 53.2541C37.6494 53.4364 36.4385 53.4494 35.3447 53.2932C34.251 53.1629 33.2744 52.9155 32.415 52.551C31.5557 52.1603 30.8005 51.7176 30.1494 51.2228C28.639 50.051 27.4541 48.5145 26.5947 46.6135C25.6312 44.0093 25.1885 41.6265 25.2666 39.465C25.3708 37.2775 25.7874 35.3374 26.5166 33.6447C27.2458 31.926 28.1833 30.4676 29.3291 29.2697C30.501 28.0718 31.6859 27.1603 32.8838 26.5353ZM38.665 46.3791C38.2744 46.2749 37.9098 46.2359 37.5713 46.2619C37.2848 46.2879 36.9984 46.3791 36.7119 46.5353C36.4255 46.6916 36.2171 46.978 36.0869 47.3947C36.4255 47.7333 36.738 48.0197 37.0244 48.2541C37.3369 48.4624 37.5973 48.6317 37.8057 48.7619C38.0661 48.9182 38.3005 49.0484 38.5088 49.1525C38.8734 49.2827 39.238 49.3869 39.6025 49.465C39.915 49.5171 40.2536 49.5432 40.6182 49.5432C41.0088 49.5171 41.3734 49.4129 41.7119 49.2307C41.4515 48.6838 41.139 48.228 40.7744 47.8635C40.4359 47.4728 40.1104 47.1734 39.7979 46.965C39.4333 46.7046 39.0557 46.5093 38.665 46.3791ZM34.5244 44.9728C34.9671 44.2958 35.4489 43.814 35.9697 43.5275C36.4906 43.2411 36.9854 43.0327 37.4541 42.9025C38.001 42.7984 38.5609 42.7593 39.1338 42.7853C39.6807 42.9155 40.2275 43.1369 40.7744 43.4494C41.2432 43.7359 41.738 44.1395 42.2588 44.6603C42.7796 45.1551 43.2614 45.8322 43.7041 46.6916C44.1208 46.0666 44.4333 45.4155 44.6416 44.7385C44.8499 44.0614 45.0062 43.4494 45.1104 42.9025C45.2145 42.2515 45.2666 41.6135 45.2666 40.9885C45.2145 40.0249 45.1104 39.0093 44.9541 37.9416C44.7979 36.8739 44.5635 35.8192 44.251 34.7775C43.9645 33.7359 43.5999 32.7463 43.1572 31.8088C42.7145 30.8713 42.1807 30.064 41.5557 29.3869C40.9567 28.7098 40.2536 28.202 39.4463 27.8635C38.665 27.5249 37.7796 27.4338 36.79 27.59C35.6963 27.7463 34.7979 28.189 34.0947 28.9182C33.4176 29.6473 32.8838 30.5067 32.4932 31.4963C32.1286 32.4598 31.8942 33.5015 31.79 34.6213C31.7119 35.715 31.7249 36.7046 31.8291 37.59C31.9072 38.3192 32.0635 39.0874 32.2979 39.8947C32.5062 40.5718 32.7796 41.353 33.1182 42.2385C33.4567 43.1239 33.9255 44.0353 34.5244 44.9728ZM52.415 25.8322C53.1963 25.9885 53.8604 26.1057 54.4072 26.1838C54.9541 26.2619 55.4098 26.327 55.7744 26.3791C56.1911 26.4312 56.5426 26.4572 56.8291 26.4572C57.1156 26.4572 57.5062 26.4442 58.001 26.4182C58.4437 26.3921 59.0036 26.3791 59.6807 26.3791C60.3577 26.353 61.2171 26.314 62.2588 26.2619C61.6598 26.6786 61.1781 27.0301 60.8135 27.3166C60.4489 27.603 60.1755 27.8504 59.9932 28.0588C59.7588 28.2932 59.6156 28.4885 59.5635 28.6447C59.5114 28.7489 59.4593 29.1395 59.4072 29.8166C59.3551 30.4676 59.3031 31.301 59.251 32.3166C59.2249 33.3062 59.2249 34.426 59.251 35.676C59.277 36.8999 59.3421 38.1499 59.4463 39.426C59.5765 40.702 59.7588 41.939 59.9932 43.1369C60.2275 44.3088 60.54 45.3374 60.9307 46.2228C61.3473 47.1083 61.8421 47.7984 62.415 48.2932C63.014 48.7879 63.7301 48.9702 64.5635 48.84C65.6572 48.6838 66.5426 48.1499 67.2197 47.2385C67.8968 46.327 68.4046 45.2202 68.7432 43.9182C69.1077 42.6161 69.3291 41.2228 69.4072 39.7385C69.5114 38.228 69.5244 36.8218 69.4463 35.5197C69.3942 34.1916 69.29 33.0458 69.1338 32.0822C68.9775 31.1187 68.8343 30.5197 68.7041 30.2853C68.5479 30.0249 68.3395 29.7254 68.0791 29.3869C67.8708 29.1004 67.5973 28.7749 67.2588 28.4103C66.9202 28.0197 66.5296 27.603 66.0869 27.1603C66.8942 27.1864 67.6234 27.2124 68.2744 27.2385C68.9255 27.2385 69.4723 27.2515 69.915 27.2775C70.4359 27.3036 70.9046 27.3296 71.3213 27.3557C71.738 27.3817 72.2588 27.4208 72.8838 27.4728C73.4046 27.5249 74.0687 27.577 74.876 27.6291C75.7093 27.6812 76.6989 27.7593 77.8447 27.8635C77.402 27.9676 77.0374 28.1109 76.751 28.2932C76.4906 28.4754 76.2822 28.6708 76.126 28.8791C75.9437 29.1135 75.8135 29.3478 75.7354 29.5822C75.6572 29.7905 75.5921 30.4155 75.54 31.4572C75.514 32.4728 75.4619 33.7098 75.3838 35.1682C75.3317 36.6004 75.2406 38.1629 75.1104 39.8557C74.9801 41.5223 74.7718 43.1109 74.4854 44.6213C74.2249 46.1317 73.8734 47.4728 73.4307 48.6447C73.014 49.8166 72.4671 50.6239 71.79 51.0666C70.8005 51.7176 69.7588 52.1864 68.665 52.4728C67.5713 52.7333 66.4645 52.8765 65.3447 52.9025C64.2249 52.9025 63.1182 52.8114 62.0244 52.6291C60.9567 52.4208 59.9281 52.1734 58.9385 51.8869C57.9229 51.5744 57.0765 50.8713 56.3994 49.7775C55.7484 48.6838 55.2275 47.3947 54.8369 45.9103C54.4723 44.3999 54.1989 42.7853 54.0166 41.0666C53.8604 39.3218 53.7562 37.6421 53.7041 36.0275C53.6781 34.4129 53.6781 32.9546 53.7041 31.6525C53.7562 30.3244 53.7952 29.3218 53.8213 28.6447C53.8213 28.3062 53.7692 27.9807 53.665 27.6682C53.5869 27.3817 53.4437 27.0822 53.2354 26.7697C53.0531 26.4312 52.7796 26.1187 52.415 25.8322ZM75.6182 26.6135C77.4411 26.6655 78.9515 26.7046 80.1494 26.7307C81.3734 26.7307 82.363 26.7307 83.1182 26.7307H85.1885H96.8291C96.8812 27.2515 96.9202 27.7593 96.9463 28.2541C96.9984 28.7228 97.0244 29.1395 97.0244 29.5041C97.0244 29.9468 97.0114 30.3504 96.9854 30.715C96.9593 31.0796 96.9202 31.4702 96.8682 31.8869C96.8161 32.2515 96.764 32.6421 96.7119 33.0588C96.6598 33.4754 96.5687 33.9051 96.4385 34.3478C96.0739 32.9416 95.5791 31.8739 94.9541 31.1447C94.3551 30.4155 93.7432 29.8817 93.1182 29.5432C92.389 29.1525 91.6208 28.9442 90.8135 28.9182C89.7458 28.9702 88.9124 29.0614 88.3135 29.1916C87.7145 29.3218 87.2458 29.5041 86.9072 29.7385C86.5687 29.9728 86.3083 30.2463 86.126 30.5588C85.9697 30.8452 85.8005 31.1708 85.6182 31.5353C85.4619 31.8478 85.3187 32.3296 85.1885 32.9807C85.0583 33.5275 84.9281 34.2697 84.7979 35.2072C84.6937 36.1447 84.5765 37.3557 84.4463 38.84C85.1494 38.6317 85.7093 38.4364 86.126 38.2541C86.5687 38.0718 86.9202 37.9155 87.1807 37.7853C87.4671 37.6291 87.6755 37.4859 87.8057 37.3557C87.9098 37.1994 88.0661 36.9129 88.2744 36.4963C88.4307 36.1317 88.639 35.6369 88.8994 35.0119C89.1859 34.3869 89.5244 33.5275 89.915 32.4338C89.9671 33.6317 89.9932 34.6343 89.9932 35.4416C89.9932 36.2228 90.0062 36.8609 90.0322 37.3557C90.0322 37.9286 90.0452 38.3843 90.0713 38.7228V40.2072C90.0713 40.7541 90.0713 41.4963 90.0713 42.4338C90.0973 43.3452 90.1364 44.5041 90.1885 45.9103C89.876 44.9468 89.5895 44.1916 89.3291 43.6447C89.0947 43.0718 88.8864 42.6421 88.7041 42.3557C88.4958 42.0171 88.3135 41.7827 88.1572 41.6525C87.9749 41.6004 87.7275 41.5484 87.415 41.4963C87.1286 41.4702 86.764 41.4572 86.3213 41.4572C85.9046 41.4572 85.3708 41.5223 84.7197 41.6525C84.6416 43.0848 84.6286 44.2437 84.6807 45.1291C84.7588 45.9885 84.863 46.6525 84.9932 47.1213C85.1234 47.6682 85.2796 48.0588 85.4619 48.2932C85.6963 48.5275 86.165 48.7228 86.8682 48.8791C87.5713 49.0093 88.3656 49.0614 89.251 49.0353C90.1624 48.9833 91.0869 48.827 92.0244 48.5666C92.9619 48.3062 93.7952 47.8765 94.5244 47.2775C95.0713 46.7827 95.6572 46.1577 96.2822 45.4025C96.8031 44.7515 97.376 43.9312 98.001 42.9416C98.652 41.952 99.29 40.7541 99.915 39.3478C99.8109 40.5197 99.7327 41.4963 99.6807 42.2775C99.6546 43.0327 99.6156 43.6447 99.5635 44.1135C99.5114 44.6603 99.4723 45.077 99.4463 45.3635C99.4463 45.676 99.4072 46.1187 99.3291 46.6916C99.277 47.1864 99.1859 47.8635 99.0557 48.7228C98.9515 49.5562 98.8083 50.6239 98.626 51.926C97.402 51.952 96.2432 51.978 95.1494 52.0041C94.0557 52.0041 93.0921 52.0171 92.2588 52.0432C91.2692 52.0692 90.3577 52.0952 89.5244 52.1213C88.665 52.1213 87.7145 52.1603 86.6729 52.2385C85.7614 52.2905 84.6807 52.3687 83.4307 52.4728C82.2067 52.577 80.8525 52.7202 79.3682 52.9025C79.4984 51.1317 79.5895 49.465 79.6416 47.9025C79.7197 46.314 79.7718 44.9208 79.7979 43.7228C79.8239 42.3166 79.8239 41.0145 79.7979 39.8166C79.9281 36.8218 79.876 34.3999 79.6416 32.551C79.4072 30.702 79.1338 29.5171 78.8213 28.9963C78.665 28.814 78.4437 28.5926 78.1572 28.3322C77.9229 28.1239 77.5973 27.8765 77.1807 27.59C76.764 27.3036 76.2432 26.978 75.6182 26.6135ZM126.438 24.6994C126.074 25.5327 125.748 26.2619 125.462 26.8869C125.175 27.5119 124.928 28.0458 124.72 28.4885C124.485 28.9833 124.29 29.426 124.134 29.8166C124.004 30.103 123.834 30.4937 123.626 30.9885C123.418 31.4312 123.157 32.0171 122.845 32.7463C122.558 33.4494 122.181 34.3609 121.712 35.4807C121.478 34.5171 121.191 33.6708 120.853 32.9416C120.514 32.2124 120.149 31.5744 119.759 31.0275C119.368 30.4807 118.951 30.0379 118.509 29.6994C118.092 29.3348 117.675 29.0353 117.259 28.801C116.295 28.2801 115.28 27.9937 114.212 27.9416C112.806 28.0197 111.699 28.2541 110.892 28.6447C110.11 29.0093 109.537 29.439 109.173 29.9338C108.808 30.4025 108.613 30.8973 108.587 31.4182C108.561 31.9129 108.626 32.3296 108.782 32.6682C108.912 32.9807 109.368 33.3452 110.149 33.7619C110.957 34.1786 111.92 34.6603 113.04 35.2072C114.186 35.728 115.41 36.327 116.712 37.0041C118.014 37.6551 119.212 38.3843 120.306 39.1916C121.425 39.9728 122.363 40.8322 123.118 41.7697C123.899 42.6812 124.329 43.6577 124.407 44.6994C124.485 46.0275 124.472 47.2254 124.368 48.2932C124.264 49.3609 123.899 50.2723 123.274 51.0275C122.649 51.7827 121.673 52.3817 120.345 52.8244C119.043 53.2671 117.233 53.5405 114.915 53.6447C112.519 53.7489 110.553 53.6187 109.017 53.2541C107.48 52.8895 106.23 52.3947 105.267 51.7697C104.329 51.1447 103.626 50.4546 103.157 49.6994C102.715 48.9442 102.389 48.228 102.181 47.551C101.972 46.8478 101.829 46.2489 101.751 45.7541C101.673 45.2333 101.543 44.9208 101.36 44.8166C101.152 44.6864 100.944 44.5692 100.735 44.465C100.553 44.3609 100.358 44.2697 100.149 44.1916C99.9411 44.0874 99.7327 43.9963 99.5244 43.9182L110.892 42.0822C110.241 42.603 109.733 43.0848 109.368 43.5275C109.03 43.9702 108.769 44.3609 108.587 44.6994C108.379 45.09 108.235 45.4546 108.157 45.7932C108.105 46.1577 108.222 46.6135 108.509 47.1603C108.795 47.7072 109.186 48.2411 109.681 48.7619C110.201 49.2567 110.8 49.6734 111.478 50.0119C112.155 50.3504 112.858 50.4937 113.587 50.4416C114.498 50.3635 115.241 50.1421 115.813 49.7775C116.386 49.3869 116.816 48.9051 117.103 48.3322C117.415 47.7593 117.597 47.1343 117.649 46.4572C117.701 45.7801 117.636 45.1161 117.454 44.465C117.298 43.7879 117.037 43.1629 116.673 42.59C116.308 41.9911 115.879 41.4963 115.384 41.1057C114.941 40.7932 114.251 40.4937 113.313 40.2072C112.402 39.9208 111.373 39.6083 110.228 39.2697C109.108 38.9312 107.949 38.5405 106.751 38.0978C105.579 37.6551 104.511 37.1083 103.548 36.4572C102.61 35.8062 101.855 35.0379 101.282 34.1525C100.735 33.2671 100.527 32.1994 100.657 30.9494C100.761 29.8817 101.1 28.9963 101.673 28.2932C102.272 27.564 103.014 26.9911 103.899 26.5744C104.811 26.1317 105.813 25.8062 106.907 25.5978C108.027 25.3895 109.16 25.2723 110.306 25.2463C111.478 25.1942 112.623 25.2072 113.743 25.2853C114.889 25.3635 115.918 25.4546 116.829 25.5588C117.741 25.6629 118.509 25.7671 119.134 25.8713C119.785 25.9494 120.188 26.0015 120.345 26.0275C121.022 26.0796 121.699 26.0666 122.376 25.9885C122.975 25.9364 123.626 25.8192 124.329 25.6369C125.058 25.4286 125.761 25.1161 126.438 24.6994ZM125.462 24.7775C127.207 24.9859 128.717 25.1421 129.993 25.2463C131.269 25.3244 132.324 25.3895 133.157 25.4416C134.121 25.4937 134.928 25.5067 135.579 25.4807C136.256 25.4546 137.181 25.3895 138.353 25.2853C139.342 25.2072 140.644 25.103 142.259 24.9728C143.873 24.8166 145.892 24.6083 148.313 24.3478C148.34 24.9468 148.353 25.5327 148.353 26.1057C148.379 26.6525 148.405 27.1343 148.431 27.551C148.457 28.0458 148.47 28.5015 148.47 28.9182C148.47 29.3609 148.444 29.9208 148.392 30.5978C148.34 31.1708 148.248 31.8999 148.118 32.7853C148.014 33.6447 147.845 34.6734 147.61 35.8713C147.246 34.465 146.894 33.3322 146.556 32.4728C146.217 31.5874 145.905 30.8843 145.618 30.3635C145.306 29.7645 144.993 29.3088 144.681 28.9963C144.342 28.7619 143.938 28.5666 143.47 28.4103C143.053 28.2801 142.519 28.176 141.868 28.0978C141.243 28.0197 140.501 28.0327 139.642 28.1369C139.511 31.5744 139.42 34.3609 139.368 36.4963C139.316 38.6317 139.277 40.2984 139.251 41.4963C139.225 42.9286 139.212 43.9572 139.212 44.5822C139.238 45.4676 139.381 46.34 139.642 47.1994C139.85 47.9286 140.188 48.6838 140.657 49.465C141.126 50.2463 141.803 50.9364 142.688 51.5353H137.923C137.48 51.5353 136.933 51.5614 136.282 51.6135C135.735 51.6655 135.032 51.7176 134.173 51.7697C133.34 51.8218 132.363 51.9129 131.243 52.0432C131.634 51.3661 131.946 50.7541 132.181 50.2072C132.415 49.6603 132.597 49.1916 132.728 48.801C132.884 48.3322 133.001 47.9155 133.079 47.551C133.105 47.0301 133.17 45.9754 133.274 44.3869C133.3 43.7359 133.326 42.9286 133.353 41.965C133.405 41.0015 133.457 39.8557 133.509 38.5275C133.587 37.1994 133.652 35.676 133.704 33.9572C133.782 32.2124 133.86 30.2463 133.938 28.0588C133.47 27.9286 133.027 27.9416 132.61 28.0978C132.194 28.228 131.829 28.3973 131.517 28.6057C131.152 28.8661 130.8 29.1786 130.462 29.5432C130.123 29.9859 129.746 30.5588 129.329 31.2619C128.965 31.8609 128.548 32.6551 128.079 33.6447C127.61 34.6083 127.076 35.8062 126.478 37.2385C126.347 35.728 126.256 34.4911 126.204 33.5275C126.152 32.5379 126.113 31.7697 126.087 31.2228C126.061 30.5718 126.048 30.09 126.048 29.7775C126.048 29.4911 126.022 29.1135 125.97 28.6447C125.918 28.2541 125.853 27.7463 125.774 27.1213C125.696 26.4702 125.592 25.689 125.462 24.7775ZM161.946 23.84C163.353 23.8921 164.772 24.1525 166.204 24.6213C167.662 25.064 169.004 25.7932 170.228 26.8088C171.451 27.7984 172.493 29.0874 173.353 30.676C174.212 32.2385 174.746 34.1525 174.954 36.4182C175.136 38.2671 174.902 40.103 174.251 41.926C173.626 43.7228 172.754 45.3765 171.634 46.8869C170.514 48.3973 169.225 49.6864 167.767 50.7541C166.308 51.7958 164.85 52.4859 163.392 52.8244C162.506 53.0327 161.53 53.0588 160.462 52.9025C159.42 52.7202 158.353 52.3947 157.259 51.926C156.191 51.4312 155.136 50.8062 154.095 50.051C153.079 49.2958 152.155 48.4364 151.321 47.4728C150.488 46.4833 149.785 45.4155 149.212 44.2697C148.665 43.1239 148.326 41.926 148.196 40.676C148.066 39.6343 148.053 38.4885 148.157 37.2385C148.287 35.9624 148.535 34.6994 148.899 33.4494C149.29 32.1734 149.824 30.9494 150.501 29.7775C151.204 28.5796 152.09 27.5379 153.157 26.6525C154.225 25.7411 155.475 25.0379 156.907 24.5432C158.366 24.0223 160.045 23.7879 161.946 23.84ZM154.954 39.6603C154.59 42.4468 154.85 44.6864 155.735 46.3791C156.647 48.0718 158.014 49.1004 159.837 49.465C160.722 49.6473 161.569 49.465 162.376 48.9182C163.209 48.3452 163.965 47.5249 164.642 46.4572C165.319 45.3895 165.905 44.1395 166.399 42.7072C166.894 41.2749 167.259 39.7775 167.493 38.215C167.728 36.6525 167.741 35.2463 167.532 33.9963C167.35 32.7202 167.024 31.6395 166.556 30.7541C166.087 29.8426 165.514 29.1395 164.837 28.6447C164.186 28.1499 163.509 27.8765 162.806 27.8244C161.582 27.7463 160.514 28.0718 159.603 28.801C158.691 29.5041 157.923 30.4286 157.298 31.5744C156.673 32.7202 156.165 34.0093 155.774 35.4416C155.41 36.8739 155.136 38.2801 154.954 39.6603ZM174.407 24.7775C175.241 24.9077 175.996 25.0249 176.673 25.1291C177.35 25.2072 177.936 25.2723 178.431 25.3244C179.004 25.4025 179.511 25.4676 179.954 25.5197C180.501 25.5978 181.321 25.5067 182.415 25.2463C183.509 24.9598 184.707 24.6994 186.009 24.465C187.337 24.2046 188.691 24.0614 190.071 24.0353C191.451 23.9833 192.715 24.2307 193.86 24.7775C195.006 25.3244 195.944 25.8713 196.673 26.4182C197.402 26.965 197.975 27.551 198.392 28.176C198.834 28.7749 199.147 29.4129 199.329 30.09C199.511 30.7671 199.616 31.5093 199.642 32.3166C199.616 33.5145 199.329 34.6734 198.782 35.7932C198.548 36.2619 198.235 36.7567 197.845 37.2775C197.48 37.7723 197.024 38.2541 196.478 38.7228C195.931 39.1916 195.28 39.6343 194.524 40.051C193.795 40.4676 192.936 40.8322 191.946 41.1447C192.91 41.4312 193.704 41.7697 194.329 42.1603C194.98 42.551 195.501 42.9155 195.892 43.2541C196.36 43.6708 196.712 44.0744 196.946 44.465C197.233 45.0119 197.428 45.4807 197.532 45.8713C197.636 46.2619 197.701 46.6395 197.728 47.0041C197.78 47.3426 197.845 47.6942 197.923 48.0588C198.001 48.4234 198.17 48.84 198.431 49.3088C198.639 49.6734 198.886 50.051 199.173 50.4416C199.433 50.7801 199.733 51.1447 200.071 51.5353C200.436 51.926 200.879 52.3036 201.399 52.6682C200.67 52.6942 199.993 52.7072 199.368 52.7072C198.769 52.7072 198.248 52.7072 197.806 52.7072C197.285 52.7072 196.79 52.6942 196.321 52.6682C195.853 52.6421 195.267 52.6291 194.563 52.6291C193.965 52.6291 193.196 52.6291 192.259 52.6291C191.347 52.6291 190.241 52.6421 188.938 52.6682C189.511 52.2254 189.98 51.7827 190.345 51.34C190.709 50.8973 190.996 50.4937 191.204 50.1291C191.438 49.7124 191.608 49.3088 191.712 48.9182C191.842 48.215 191.855 47.4859 191.751 46.7307C191.673 46.0796 191.465 45.3635 191.126 44.5822C190.787 43.7749 190.241 42.9676 189.485 42.1603C188.73 42.2905 188.092 42.3947 187.571 42.4728C187.076 42.5249 186.647 42.577 186.282 42.6291C185.866 42.6812 185.527 42.7202 185.267 42.7463C185.032 42.7723 184.772 42.7984 184.485 42.8244C184.251 42.8504 183.991 42.8895 183.704 42.9416C183.444 42.9676 183.196 43.0067 182.962 43.0588C182.91 44.1786 182.91 45.1551 182.962 45.9885C183.014 46.7958 183.079 47.4728 183.157 48.0197C183.261 48.6708 183.379 49.2307 183.509 49.6994C183.639 50.1682 183.821 50.6239 184.056 51.0666C184.238 51.4312 184.472 51.8218 184.759 52.2385C185.045 52.6291 185.371 52.9546 185.735 53.215C185.058 53.215 184.407 53.215 183.782 53.215C183.183 53.215 182.636 53.202 182.142 53.176C181.569 53.176 181.022 53.1629 180.501 53.1369C179.98 53.1109 179.394 53.0978 178.743 53.0978C178.196 53.0978 177.545 53.0978 176.79 53.0978C176.061 53.0978 175.267 53.1109 174.407 53.1369C175.084 52.4338 175.618 51.8348 176.009 51.34C176.399 50.8452 176.699 50.4286 176.907 50.09C177.142 49.7254 177.285 49.4129 177.337 49.1525C177.389 48.7359 177.428 47.9937 177.454 46.926C177.506 45.8322 177.545 44.5822 177.571 43.176C177.597 41.7697 177.61 40.2984 177.61 38.7619C177.61 37.2254 177.597 35.7932 177.571 34.465C177.545 33.1109 177.519 31.952 177.493 30.9885C177.467 30.0249 177.441 29.4129 177.415 29.1525C177.337 28.6838 177.168 28.215 176.907 27.7463C176.699 27.3296 176.399 26.8609 176.009 26.34C175.618 25.8192 175.084 25.2984 174.407 24.7775ZM189.173 38.5275C189.433 38.3713 189.655 38.215 189.837 38.0588C190.019 37.9025 190.175 37.6551 190.306 37.3166C190.436 36.952 190.54 36.4442 190.618 35.7932C190.722 35.1421 190.84 34.2567 190.97 33.1369C191.074 32.0171 190.996 31.0926 190.735 30.3635C190.501 29.6343 190.175 29.0614 189.759 28.6447C189.368 28.202 188.925 27.9025 188.431 27.7463C187.962 27.564 187.545 27.4728 187.181 27.4728C186.451 27.4728 185.735 27.6942 185.032 28.1369C184.329 28.5796 183.795 29.1786 183.431 29.9338C183.3 30.2723 183.183 30.8322 183.079 31.6135C183.001 32.2905 182.949 33.228 182.923 34.426C182.897 35.6239 182.936 37.1994 183.04 39.1525C184.03 39.3088 184.902 39.3739 185.657 39.3478C186.412 39.2958 187.05 39.2046 187.571 39.0744C188.196 38.9442 188.73 38.7619 189.173 38.5275ZM206.165 26.8478C207.467 26.926 208.561 26.9911 209.446 27.0432C210.358 27.0692 211.113 27.0952 211.712 27.1213C212.389 27.1473 212.962 27.1473 213.431 27.1213C213.899 27.0952 214.537 27.0301 215.345 26.926C216.022 26.8478 216.92 26.7307 218.04 26.5744C219.186 26.3921 220.605 26.1577 222.298 25.8713C221.699 26.4702 221.23 27.0171 220.892 27.5119C220.579 27.9807 220.332 28.3843 220.149 28.7228C219.941 29.1395 219.798 29.4911 219.72 29.7775C219.668 30.0379 219.72 30.689 219.876 31.7307C220.032 32.7723 220.254 34.0093 220.54 35.4416C220.826 36.8478 221.139 38.3583 221.478 39.9728C221.816 41.5614 222.155 43.0588 222.493 44.465C222.832 45.8452 223.131 47.0301 223.392 48.0197C223.678 48.9833 223.886 49.5562 224.017 49.7385C224.407 50.2853 224.655 50.6499 224.759 50.8322C224.863 50.9885 225.045 51.1317 225.306 51.2619C225.41 51.314 225.579 51.3921 225.813 51.4963C226.022 51.6004 226.295 51.7307 226.634 51.8869C226.998 52.0432 227.454 52.2254 228.001 52.4338C226.985 52.4859 226.113 52.5249 225.384 52.551C224.655 52.551 224.056 52.564 223.587 52.59C223.04 52.6161 222.571 52.6421 222.181 52.6682C221.79 52.6682 221.321 52.6942 220.774 52.7463C220.306 52.7984 219.694 52.8504 218.938 52.9025C218.209 52.9546 217.35 53.0067 216.36 53.0588C216.881 52.6942 217.298 52.3687 217.61 52.0822C217.949 51.7697 218.209 51.5093 218.392 51.301C218.6 51.0405 218.743 50.8062 218.821 50.5978C218.873 50.3635 218.912 50.0119 218.938 49.5432C218.965 49.1265 218.965 48.5796 218.938 47.9025C218.912 47.1994 218.847 46.2879 218.743 45.1682L208.47 46.2228C208.209 46.6655 208.014 47.0562 207.884 47.3947C207.754 47.7072 207.662 47.9807 207.61 48.215C207.532 48.5015 207.506 48.7359 207.532 48.9182C207.584 49.1265 207.675 49.3739 207.806 49.6603C207.936 49.9208 208.118 50.2333 208.353 50.5978C208.613 50.9364 208.991 51.34 209.485 51.8088C208.834 51.7827 208.17 51.7697 207.493 51.7697C206.816 51.7697 206.191 51.7827 205.618 51.8088C204.941 51.8348 204.277 51.8609 203.626 51.8869C202.975 51.9129 202.233 51.952 201.399 52.0041C200.696 52.0562 199.876 52.1213 198.938 52.1994C197.975 52.2515 196.946 52.3296 195.853 52.4338C196.53 52.1213 197.103 51.8088 197.571 51.4963C198.04 51.1577 198.431 50.8452 198.743 50.5588C199.108 50.2463 199.42 49.9468 199.681 49.6603C199.863 49.3999 200.228 48.801 200.774 47.8635C201.321 46.8999 201.933 45.7671 202.61 44.465C203.313 43.1629 204.043 41.7697 204.798 40.2853C205.579 38.801 206.282 37.4077 206.907 36.1057C207.532 34.7775 208.04 33.6317 208.431 32.6682C208.821 31.7046 209.017 31.0796 209.017 30.7932C208.965 30.4546 208.834 30.077 208.626 29.6603C208.444 29.2958 208.157 28.8791 207.767 28.4103C207.402 27.9416 206.868 27.4208 206.165 26.8478ZM218.274 42.2775C218.118 41.3661 217.975 40.5848 217.845 39.9338C217.715 39.2567 217.61 38.6968 217.532 38.2541C217.428 37.7333 217.35 37.2775 217.298 36.8869C217.22 36.5223 217.129 36.0536 217.024 35.4807C216.92 34.9859 216.79 34.3739 216.634 33.6447C216.504 32.8895 216.334 31.9911 216.126 30.9494C214.642 33.9182 213.483 36.2228 212.649 37.8635C211.842 39.478 211.256 40.6629 210.892 41.4182C210.449 42.3036 210.201 42.8244 210.149 42.9807L218.274 42.2775Z" fill="#AD9A5C"/>
<path d="M233.531 53.1182L236.681 51.2182L239.831 53.1432L239.006 49.5432L241.781 47.1432L238.131 46.8182L236.681 43.4182L235.231 46.7932L231.581 47.1182L234.356 49.5432L233.531 53.1182ZM230.506 57.2932L232.131 50.2682L226.681 45.5432L233.881 44.9182L236.681 38.2932L239.481 44.9182L246.681 45.5432L241.231 50.2682L242.856 57.2932L236.681 53.5682L230.506 57.2932Z" fill="#1D1B20"/>
<path d="M212.531 68.1182L215.681 66.2182L218.831 68.1432L218.006 64.5432L220.781 62.1432L217.131 61.8182L215.681 58.4182L214.231 61.7932L210.581 62.1182L213.356 64.5432L212.531 68.1182ZM209.506 72.2932L211.131 65.2682L205.681 60.5432L212.881 59.9182L215.681 53.2932L218.481 59.9182L225.681 60.5432L220.231 65.2682L221.856 72.2932L215.681 68.5682L209.506 72.2932Z" fill="#1D1B20"/>
<path d="M232.743 76.5744L236.681 74.1994L240.618 76.6057L239.587 72.1057L243.056 69.1057L238.493 68.6994L236.681 64.4494L234.868 68.6682L230.306 69.0744L233.774 72.1057L232.743 76.5744ZM228.962 81.7932L230.993 73.0119L224.181 67.1057L233.181 66.3244L236.681 58.0432L240.181 66.3244L249.181 67.1057L242.368 73.0119L244.399 81.7932L236.681 77.1369L228.962 81.7932Z" fill="#1D1B20"/>
<path d="M23.6182 10.0119L19.6807 12.3869L15.7432 9.98065L16.7744 14.4807L13.3057 17.4807L17.8682 17.8869L19.6807 22.1369L21.4932 17.9182L26.0557 17.5119L22.5869 14.4807L23.6182 10.0119ZM27.3994 4.79315L25.3682 13.5744L32.1807 19.4807L23.1807 20.2619L19.6807 28.5432L16.1807 20.2619L7.18066 19.4807L13.9932 13.5744L11.9619 4.79315L19.6807 9.4494L27.3994 4.79315Z" fill="#1D1B20"/>
<path d="M13.6535 32.4034L13.4419 36.076L10.0741 37.5879L13.5108 38.9407L13.9237 42.5863L16.2537 39.7579L19.8783 40.482L17.9124 37.3791L19.706 34.1836L16.1375 35.1036L13.6535 32.4034ZM11.9171 27.5489L16.796 32.8581L23.7736 31.0299L20.2222 37.3242L24.1073 43.377L17.0589 41.9452L12.4761 47.5334L11.6557 40.3672L4.9409 37.7398L11.5028 34.7485L11.9171 27.5489Z" fill="#1D1B20"/>
<path d="M42.64 9.67107L40.7925 12.8522L37.1049 12.68L39.5601 15.4391L38.282 18.8782L41.6382 17.4071L44.545 19.6902L44.1925 16.0339L47.236 13.993L43.6366 13.2021L42.64 9.67107ZM43.2834 4.55567L45.2384 11.4961L52.2894 13.0164L46.2781 17.0282L47.0106 24.1832L41.3687 19.7223L34.756 22.6382L37.2607 15.874L32.4565 10.4971L39.662 10.792L43.2834 4.55567Z" fill="#1D1B20"/>
</g>
<defs>
<filter id="filter0_i_1_713" x="0" y="0" width="251.681" height="88.2932" filterUnits="userSpaceOnUse" color-interpolation-filters="sRGB">
<feFlood flood-opacity="0" result="BackgroundImageFix"/>
<feBlend mode="normal" in="SourceGraphic" in2="BackgroundImageFix" result="shape"/>
<feColorMatrix in="SourceAlpha" type="matrix" values="0 0 0 0 0 0 0 0 0 0 0 0 0 0 0 0 0 0 127 0" result="hardAlpha"/>
<feOffset dy="4"/>
<feGaussianBlur stdDeviation="2"/>
<feComposite in2="hardAlpha" operator="arithmetic" k2="-1" k3="1"/>
<feColorMatrix type="matrix" values="0 0 0 0 0 0 0 0 0 0 0 0 0 0 0 0 0 0 0.25 0"/>
<feBlend mode="normal" in2="shape" result="effect1_innerShadow_1_713"/>
</filter>
</defs>
</svg>
