<svg width="291" height="88" viewBox="0 0 291 88" fill="none" xmlns="http://www.w3.org/2000/svg">
<path d="M33.8438 25.8906C34.5312 25.5156 35.3125 25.1875 36.1875 24.9062C37.0625 24.5938 37.9688 24.3594 38.9062 24.2031C39.8438 24.0156 40.7812 23.9062 41.7188 23.875C42.6875 23.8438 43.5938 23.9219 44.4375 24.1094C46.9062 24.6406 48.9844 25.6562 50.6719 27.1562C52.3594 28.6562 53.6562 30.4062 54.5625 32.4062C55.5 34.4062 56.0469 36.5625 56.2031 38.875C56.3906 41.1562 56.2031 43.3594 55.6406 45.4844C55.4531 46.1094 55.1406 46.8281 54.7031 47.6406C54.3281 48.3281 53.8125 49.1719 53.1562 50.1719C52.5 51.1406 51.6406 52.2188 50.5781 53.4062C50.8281 53.9688 51.0781 54.4219 51.3281 54.7656C51.6094 55.0781 51.875 55.3125 52.125 55.4688C52.4062 55.6562 52.6719 55.7812 52.9219 55.8438C53.1719 55.875 53.4688 55.8906 53.8125 55.8906C54.0938 55.8906 54.4219 55.875 54.7969 55.8438C55.2031 55.7812 55.6406 55.6875 56.1094 55.5625L48.7969 61.6562C48.7031 61.1562 48.5938 60.7188 48.4688 60.3438C48.375 60 48.2969 59.7031 48.2344 59.4531L47.9531 58.75C47.8281 58.5938 47.7031 58.3906 47.5781 58.1406C47.4531 57.9531 47.3125 57.7188 47.1562 57.4375C47 57.1562 46.7969 56.8438 46.5469 56.5C44.5781 57.25 42.7812 57.7344 41.1562 57.9531C39.5625 58.1719 38.1094 58.1875 36.7969 58C35.4844 57.8438 34.3125 57.5469 33.2812 57.1094C32.25 56.6406 31.3438 56.1094 30.5625 55.5156C28.75 54.1094 27.3281 52.2656 26.2969 49.9844C25.1406 46.8594 24.6094 44 24.7031 41.4062C24.8281 38.7812 25.3281 36.4531 26.2031 34.4219C27.0781 32.3594 28.2031 30.6094 29.5781 29.1719C30.9844 27.7344 32.4062 26.6406 33.8438 25.8906ZM40.7812 49.7031C40.3125 49.5781 39.875 49.5312 39.4688 49.5625C39.125 49.5938 38.7812 49.7031 38.4375 49.8906C38.0938 50.0781 37.8438 50.4219 37.6875 50.9219C38.0938 51.3281 38.4688 51.6719 38.8125 51.9531C39.1875 52.2031 39.5 52.4062 39.75 52.5625C40.0625 52.75 40.3438 52.9062 40.5938 53.0312C41.0312 53.1875 41.4688 53.3125 41.9062 53.4062C42.2812 53.4688 42.6875 53.5 43.125 53.5C43.5938 53.4688 44.0312 53.3438 44.4375 53.125C44.125 52.4688 43.75 51.9219 43.3125 51.4844C42.9062 51.0156 42.5156 50.6562 42.1406 50.4062C41.7031 50.0938 41.25 49.8594 40.7812 49.7031ZM35.8125 48.0156C36.3438 47.2031 36.9219 46.625 37.5469 46.2812C38.1719 45.9375 38.7656 45.6875 39.3281 45.5312C39.9844 45.4062 40.6562 45.3594 41.3438 45.3906C42 45.5469 42.6562 45.8125 43.3125 46.1875C43.875 46.5312 44.4688 47.0156 45.0938 47.6406C45.7188 48.2344 46.2969 49.0469 46.8281 50.0781C47.3281 49.3281 47.7031 48.5469 47.9531 47.7344C48.2031 46.9219 48.3906 46.1875 48.5156 45.5312C48.6406 44.75 48.7031 43.9844 48.7031 43.2344C48.6406 42.0781 48.5156 40.8594 48.3281 39.5781C48.1406 38.2969 47.8594 37.0312 47.4844 35.7812C47.1406 34.5312 46.7031 33.3438 46.1719 32.2188C45.6406 31.0938 45 30.125 44.25 29.3125C43.5312 28.5 42.6875 27.8906 41.7188 27.4844C40.7812 27.0781 39.7188 26.9688 38.5312 27.1562C37.2188 27.3438 36.1406 27.875 35.2969 28.75C34.4844 29.625 33.8438 30.6562 33.375 31.8438C32.9375 33 32.6562 34.25 32.5312 35.5938C32.4375 36.9062 32.4531 38.0938 32.5781 39.1562C32.6719 40.0312 32.8594 40.9531 33.1406 41.9219C33.3906 42.7344 33.7188 43.6719 34.125 44.7344C34.5312 45.7969 35.0938 46.8906 35.8125 48.0156ZM57.2812 25.0469C58.2188 25.2344 59.0156 25.375 59.6719 25.4688C60.3281 25.5625 60.875 25.6406 61.3125 25.7031C61.8125 25.7656 62.2344 25.7969 62.5781 25.7969C62.9219 25.7969 63.3906 25.7812 63.9844 25.75C64.5156 25.7188 65.1875 25.7031 66 25.7031C66.8125 25.6719 67.8438 25.625 69.0938 25.5625C68.375 26.0625 67.7969 26.4844 67.3594 26.8281C66.9219 27.1719 66.5938 27.4688 66.375 27.7188C66.0938 28 65.9219 28.2344 65.8594 28.4219C65.7969 28.5469 65.7344 29.0156 65.6719 29.8281C65.6094 30.6094 65.5469 31.6094 65.4844 32.8281C65.4531 34.0156 65.4531 35.3594 65.4844 36.8594C65.5156 38.3281 65.5938 39.8281 65.7188 41.3594C65.875 42.8906 66.0938 44.375 66.375 45.8125C66.6562 47.2188 67.0312 48.4531 67.5 49.5156C68 50.5781 68.5938 51.4062 69.2812 52C70 52.5938 70.8594 52.8125 71.8594 52.6562C73.1719 52.4688 74.2344 51.8281 75.0469 50.7344C75.8594 49.6406 76.4688 48.3125 76.875 46.75C77.3125 45.1875 77.5781 43.5156 77.6719 41.7344C77.7969 39.9219 77.8125 38.2344 77.7188 36.6719C77.6562 35.0781 77.5312 33.7031 77.3438 32.5469C77.1562 31.3906 76.9844 30.6719 76.8281 30.3906C76.6406 30.0781 76.3906 29.7188 76.0781 29.3125C75.8281 28.9688 75.5 28.5781 75.0938 28.1406C74.6875 27.6719 74.2188 27.1719 73.6875 26.6406C74.6562 26.6719 75.5312 26.7031 76.3125 26.7344C77.0938 26.7344 77.75 26.75 78.2812 26.7812C78.9062 26.8125 79.4688 26.8438 79.9688 26.875C80.4688 26.9062 81.0938 26.9531 81.8438 27.0156C82.4688 27.0781 83.2656 27.1406 84.2344 27.2031C85.2344 27.2656 86.4219 27.3594 87.7969 27.4844C87.2656 27.6094 86.8281 27.7812 86.4844 28C86.1719 28.2188 85.9219 28.4531 85.7344 28.7031C85.5156 28.9844 85.3594 29.2656 85.2656 29.5469C85.1719 29.7969 85.0938 30.5469 85.0312 31.7969C85 33.0156 84.9375 34.5 84.8438 36.25C84.7812 37.9688 84.6719 39.8438 84.5156 41.875C84.3594 43.875 84.1094 45.7812 83.7656 47.5938C83.4531 49.4062 83.0312 51.0156 82.5 52.4219C82 53.8281 81.3438 54.7969 80.5312 55.3281C79.3438 56.1094 78.0938 56.6719 76.7812 57.0156C75.4688 57.3281 74.1406 57.5 72.7969 57.5312C71.4531 57.5312 70.125 57.4219 68.8125 57.2031C67.5312 56.9531 66.2969 56.6562 65.1094 56.3125C63.8906 55.9375 62.875 55.0938 62.0625 53.7812C61.2812 52.4688 60.6562 50.9219 60.1875 49.1406C59.75 47.3281 59.4219 45.3906 59.2031 43.3281C59.0156 41.2344 58.8906 39.2188 58.8281 37.2812C58.7969 35.3438 58.7969 33.5938 58.8281 32.0312C58.8906 30.4375 58.9375 29.2344 58.9688 28.4219C58.9688 28.0156 58.9062 27.625 58.7812 27.25C58.6875 26.9062 58.5156 26.5469 58.2656 26.1719C58.0469 25.7656 57.7188 25.3906 57.2812 25.0469ZM85.125 25.9844C87.3125 26.0469 89.125 26.0938 90.5625 26.125C92.0312 26.125 93.2188 26.125 94.125 26.125H96.6094H110.578C110.641 26.75 110.688 27.3594 110.719 27.9531C110.781 28.5156 110.812 29.0156 110.812 29.4531C110.812 29.9844 110.797 30.4688 110.766 30.9062C110.734 31.3438 110.688 31.8125 110.625 32.3125C110.562 32.75 110.5 33.2188 110.438 33.7188C110.375 34.2188 110.266 34.7344 110.109 35.2656C109.672 33.5781 109.078 32.2969 108.328 31.4219C107.609 30.5469 106.875 29.9062 106.125 29.5C105.25 29.0312 104.328 28.7812 103.359 28.75C102.078 28.8125 101.078 28.9219 100.359 29.0781C99.6406 29.2344 99.0781 29.4531 98.6719 29.7344C98.2656 30.0156 97.9531 30.3438 97.7344 30.7188C97.5469 31.0625 97.3438 31.4531 97.125 31.8906C96.9375 32.2656 96.7656 32.8438 96.6094 33.625C96.4531 34.2812 96.2969 35.1719 96.1406 36.2969C96.0156 37.4219 95.875 38.875 95.7188 40.6562C96.5625 40.4062 97.2344 40.1719 97.7344 39.9531C98.2656 39.7344 98.6875 39.5469 99 39.3906C99.3438 39.2031 99.5938 39.0312 99.75 38.875C99.875 38.6875 100.062 38.3438 100.312 37.8438C100.5 37.4062 100.75 36.8125 101.062 36.0625C101.406 35.3125 101.812 34.2812 102.281 32.9688C102.344 34.4062 102.375 35.6094 102.375 36.5781C102.375 37.5156 102.391 38.2812 102.422 38.875C102.422 39.5625 102.438 40.1094 102.469 40.5156V42.2969C102.469 42.9531 102.469 43.8438 102.469 44.9688C102.5 46.0625 102.547 47.4531 102.609 49.1406C102.234 47.9844 101.891 47.0781 101.578 46.4219C101.297 45.7344 101.047 45.2188 100.828 44.875C100.578 44.4688 100.359 44.1875 100.172 44.0312C99.9531 43.9688 99.6562 43.9062 99.2812 43.8438C98.9375 43.8125 98.5 43.7969 97.9688 43.7969C97.4688 43.7969 96.8281 43.875 96.0469 44.0312C95.9531 45.75 95.9375 47.1406 96 48.2031C96.0938 49.2344 96.2188 50.0312 96.375 50.5938C96.5312 51.25 96.7188 51.7188 96.9375 52C97.2188 52.2812 97.7812 52.5156 98.625 52.7031C99.4688 52.8594 100.422 52.9219 101.484 52.8906C102.578 52.8281 103.688 52.6406 104.812 52.3281C105.938 52.0156 106.938 51.5 107.812 50.7812C108.469 50.1875 109.172 49.4375 109.922 48.5312C110.547 47.75 111.234 46.7656 111.984 45.5781C112.766 44.3906 113.531 42.9531 114.281 41.2656C114.156 42.6719 114.062 43.8438 114 44.7812C113.969 45.6875 113.922 46.4219 113.859 46.9844C113.797 47.6406 113.75 48.1406 113.719 48.4844C113.719 48.8594 113.672 49.3906 113.578 50.0781C113.516 50.6719 113.406 51.4844 113.25 52.5156C113.125 53.5156 112.953 54.7969 112.734 56.3594C111.266 56.3906 109.875 56.4219 108.562 56.4531C107.25 56.4531 106.094 56.4688 105.094 56.5C103.906 56.5312 102.812 56.5625 101.812 56.5938C100.781 56.5938 99.6406 56.6406 98.3906 56.7344C97.2969 56.7969 96 56.8906 94.5 57.0156C93.0312 57.1406 91.4062 57.3125 89.625 57.5312C89.7812 55.4062 89.8906 53.4062 89.9531 51.5312C90.0469 49.625 90.1094 47.9531 90.1406 46.5156C90.1719 44.8281 90.1719 43.2656 90.1406 41.8281C90.2969 38.2344 90.2344 35.3281 89.9531 33.1094C89.6719 30.8906 89.3438 29.4688 88.9688 28.8438C88.7812 28.625 88.5156 28.3594 88.1719 28.0469C87.8906 27.7969 87.5 27.5 87 27.1562C86.5 26.8125 85.875 26.4219 85.125 25.9844ZM146.109 23.6875C145.672 24.6875 145.281 25.5625 144.938 26.3125C144.594 27.0625 144.297 27.7031 144.047 28.2344C143.766 28.8281 143.531 29.3594 143.344 29.8281C143.188 30.1719 142.984 30.6406 142.734 31.2344C142.484 31.7656 142.172 32.4688 141.797 33.3438C141.453 34.1875 141 35.2812 140.438 36.625C140.156 35.4688 139.812 34.4531 139.406 33.5781C139 32.7031 138.562 31.9375 138.094 31.2812C137.625 30.625 137.125 30.0938 136.594 29.6875C136.094 29.25 135.594 28.8906 135.094 28.6094C133.938 27.9844 132.719 27.6406 131.438 27.5781C129.75 27.6719 128.422 27.9531 127.453 28.4219C126.516 28.8594 125.828 29.375 125.391 29.9688C124.953 30.5312 124.719 31.125 124.688 31.75C124.656 32.3438 124.734 32.8438 124.922 33.25C125.078 33.625 125.625 34.0625 126.562 34.5625C127.531 35.0625 128.688 35.6406 130.031 36.2969C131.406 36.9219 132.875 37.6406 134.438 38.4531C136 39.2344 137.438 40.1094 138.75 41.0781C140.094 42.0156 141.219 43.0469 142.125 44.1719C143.062 45.2656 143.578 46.4375 143.672 47.6875C143.766 49.2812 143.75 50.7188 143.625 52C143.5 53.2812 143.062 54.375 142.312 55.2812C141.562 56.1875 140.391 56.9062 138.797 57.4375C137.234 57.9688 135.062 58.2969 132.281 58.4219C129.406 58.5469 127.047 58.3906 125.203 57.9531C123.359 57.5156 121.859 56.9219 120.703 56.1719C119.578 55.4219 118.734 54.5938 118.172 53.6875C117.641 52.7812 117.25 51.9219 117 51.1094C116.75 50.2656 116.578 49.5469 116.484 48.9531C116.391 48.3281 116.234 47.9531 116.016 47.8281C115.766 47.6719 115.516 47.5312 115.266 47.4062C115.047 47.2812 114.812 47.1719 114.562 47.0781C114.312 46.9531 114.062 46.8438 113.812 46.75L127.453 44.5469C126.672 45.1719 126.062 45.75 125.625 46.2812C125.219 46.8125 124.906 47.2812 124.688 47.6875C124.438 48.1562 124.266 48.5938 124.172 49C124.109 49.4375 124.25 49.9844 124.594 50.6406C124.938 51.2969 125.406 51.9375 126 52.5625C126.625 53.1562 127.344 53.6562 128.156 54.0625C128.969 54.4688 129.812 54.6406 130.688 54.5781C131.781 54.4844 132.672 54.2188 133.359 53.7812C134.047 53.3125 134.562 52.7344 134.906 52.0469C135.281 51.3594 135.5 50.6094 135.562 49.7969C135.625 48.9844 135.547 48.1875 135.328 47.4062C135.141 46.5938 134.828 45.8438 134.391 45.1562C133.953 44.4375 133.438 43.8438 132.844 43.375C132.312 43 131.484 42.6406 130.359 42.2969C129.266 41.9531 128.031 41.5781 126.656 41.1719C125.312 40.7656 123.922 40.2969 122.484 39.7656C121.078 39.2344 119.797 38.5781 118.641 37.7969C117.516 37.0156 116.609 36.0938 115.922 35.0312C115.266 33.9688 115.016 32.6875 115.172 31.1875C115.297 29.9062 115.703 28.8438 116.391 28C117.109 27.125 118 26.4375 119.062 25.9375C120.156 25.4062 121.359 25.0156 122.672 24.7656C124.016 24.5156 125.375 24.375 126.75 24.3438C128.156 24.2812 129.531 24.2969 130.875 24.3906C132.25 24.4844 133.484 24.5938 134.578 24.7188C135.672 24.8438 136.594 24.9688 137.344 25.0938C138.125 25.1875 138.609 25.25 138.797 25.2812C139.609 25.3438 140.422 25.3281 141.234 25.2344C141.953 25.1719 142.734 25.0312 143.578 24.8125C144.453 24.5625 145.297 24.1875 146.109 23.6875ZM144.938 23.7812C147.031 24.0312 148.844 24.2188 150.375 24.3438C151.906 24.4375 153.172 24.5156 154.172 24.5781C155.328 24.6406 156.297 24.6562 157.078 24.625C157.891 24.5938 159 24.5156 160.406 24.3906C161.594 24.2969 163.156 24.1719 165.094 24.0156C167.031 23.8281 169.453 23.5781 172.359 23.2656C172.391 23.9844 172.406 24.6875 172.406 25.375C172.438 26.0312 172.469 26.6094 172.5 27.1094C172.531 27.7031 172.547 28.25 172.547 28.75C172.547 29.2812 172.516 29.9531 172.453 30.7656C172.391 31.4531 172.281 32.3281 172.125 33.3906C172 34.4219 171.797 35.6562 171.516 37.0938C171.078 35.4062 170.656 34.0469 170.25 33.0156C169.844 31.9531 169.469 31.1094 169.125 30.4844C168.75 29.7656 168.375 29.2188 168 28.8438C167.594 28.5625 167.109 28.3281 166.547 28.1406C166.047 27.9844 165.406 27.8594 164.625 27.7656C163.875 27.6719 162.984 27.6875 161.953 27.8125C161.797 31.9375 161.688 35.2812 161.625 37.8438C161.562 40.4062 161.516 42.4062 161.484 43.8438C161.453 45.5625 161.438 46.7969 161.438 47.5469C161.469 48.6094 161.641 49.6562 161.953 50.6875C162.203 51.5625 162.609 52.4688 163.172 53.4062C163.734 54.3438 164.547 55.1719 165.609 55.8906H159.891C159.359 55.8906 158.703 55.9219 157.922 55.9844C157.266 56.0469 156.422 56.1094 155.391 56.1719C154.391 56.2344 153.219 56.3438 151.875 56.5C152.344 55.6875 152.719 54.9531 153 54.2969C153.281 53.6406 153.5 53.0781 153.656 52.6094C153.844 52.0469 153.984 51.5469 154.078 51.1094C154.109 50.4844 154.188 49.2188 154.312 47.3125C154.344 46.5312 154.375 45.5625 154.406 44.4062C154.469 43.25 154.531 41.875 154.594 40.2812C154.688 38.6875 154.766 36.8594 154.828 34.7969C154.922 32.7031 155.016 30.3438 155.109 27.7188C154.547 27.5625 154.016 27.5781 153.516 27.7656C153.016 27.9219 152.578 28.125 152.203 28.375C151.766 28.6875 151.344 29.0625 150.938 29.5C150.531 30.0312 150.078 30.7188 149.578 31.5625C149.141 32.2812 148.641 33.2344 148.078 34.4219C147.516 35.5781 146.875 37.0156 146.156 38.7344C146 36.9219 145.891 35.4375 145.828 34.2812C145.766 33.0938 145.719 32.1719 145.688 31.5156C145.656 30.7344 145.641 30.1562 145.641 29.7812C145.641 29.4375 145.609 28.9844 145.547 28.4219C145.484 27.9531 145.406 27.3438 145.312 26.5938C145.219 25.8125 145.094 24.875 144.938 23.7812ZM188.719 22.6562C190.406 22.7188 192.109 23.0312 193.828 23.5938C195.578 24.125 197.188 25 198.656 26.2188C200.125 27.4062 201.375 28.9531 202.406 30.8594C203.438 32.7344 204.078 35.0312 204.328 37.75C204.547 39.9688 204.266 42.1719 203.484 44.3594C202.734 46.5156 201.688 48.5 200.344 50.3125C199 52.125 197.453 53.6719 195.703 54.9531C193.953 56.2031 192.203 57.0312 190.453 57.4375C189.391 57.6875 188.219 57.7188 186.938 57.5312C185.688 57.3125 184.406 56.9219 183.094 56.3594C181.812 55.7656 180.547 55.0156 179.297 54.1094C178.078 53.2031 176.969 52.1719 175.969 51.0156C174.969 49.8281 174.125 48.5469 173.438 47.1719C172.781 45.7969 172.375 44.3594 172.219 42.8594C172.062 41.6094 172.047 40.2344 172.172 38.7344C172.328 37.2031 172.625 35.6875 173.062 34.1875C173.531 32.6562 174.172 31.1875 174.984 29.7812C175.828 28.3438 176.891 27.0938 178.172 26.0312C179.453 24.9375 180.953 24.0938 182.672 23.5C184.422 22.875 186.438 22.5938 188.719 22.6562ZM180.328 41.6406C179.891 44.9844 180.203 47.6719 181.266 49.7031C182.359 51.7344 184 52.9688 186.188 53.4062C187.25 53.625 188.266 53.4062 189.234 52.75C190.234 52.0625 191.141 51.0781 191.953 49.7969C192.766 48.5156 193.469 47.0156 194.062 45.2969C194.656 43.5781 195.094 41.7812 195.375 39.9062C195.656 38.0312 195.672 36.3438 195.422 34.8438C195.203 33.3125 194.812 32.0156 194.25 30.9531C193.688 29.8594 193 29.0156 192.188 28.4219C191.406 27.8281 190.594 27.5 189.75 27.4375C188.281 27.3438 187 27.7344 185.906 28.6094C184.812 29.4531 183.891 30.5625 183.141 31.9375C182.391 33.3125 181.781 34.8594 181.312 36.5781C180.875 38.2969 180.547 39.9844 180.328 41.6406ZM203.672 23.7812C204.672 23.9375 205.578 24.0781 206.391 24.2031C207.203 24.2969 207.906 24.375 208.5 24.4375C209.188 24.5312 209.797 24.6094 210.328 24.6719C210.984 24.7656 211.969 24.6562 213.281 24.3438C214.594 24 216.031 23.6875 217.594 23.4062C219.188 23.0938 220.812 22.9219 222.469 22.8906C224.125 22.8281 225.641 23.125 227.016 23.7812C228.391 24.4375 229.516 25.0938 230.391 25.75C231.266 26.4062 231.953 27.1094 232.453 27.8594C232.984 28.5781 233.359 29.3438 233.578 30.1562C233.797 30.9688 233.922 31.8594 233.953 32.8281C233.922 34.2656 233.578 35.6562 232.922 37C232.641 37.5625 232.266 38.1562 231.797 38.7812C231.359 39.375 230.812 39.9531 230.156 40.5156C229.5 41.0781 228.719 41.6094 227.812 42.1094C226.938 42.6094 225.906 43.0469 224.719 43.4219C225.875 43.7656 226.828 44.1719 227.578 44.6406C228.359 45.1094 228.984 45.5469 229.453 45.9531C230.016 46.4531 230.438 46.9375 230.719 47.4062C231.062 48.0625 231.297 48.625 231.422 49.0938C231.547 49.5625 231.625 50.0156 231.656 50.4531C231.719 50.8594 231.797 51.2812 231.891 51.7188C231.984 52.1562 232.188 52.6562 232.5 53.2188C232.75 53.6562 233.047 54.1094 233.391 54.5781C233.703 54.9844 234.062 55.4219 234.469 55.8906C234.906 56.3594 235.438 56.8125 236.062 57.25C235.188 57.2812 234.375 57.2969 233.625 57.2969C232.906 57.2969 232.281 57.2969 231.75 57.2969C231.125 57.2969 230.531 57.2812 229.969 57.25C229.406 57.2188 228.703 57.2031 227.859 57.2031C227.141 57.2031 226.219 57.2031 225.094 57.2031C224 57.2031 222.672 57.2188 221.109 57.25C221.797 56.7188 222.359 56.1875 222.797 55.6562C223.234 55.125 223.578 54.6406 223.828 54.2031C224.109 53.7031 224.312 53.2188 224.438 52.75C224.594 51.9062 224.609 51.0312 224.484 50.125C224.391 49.3438 224.141 48.4844 223.734 47.5469C223.328 46.5781 222.672 45.6094 221.766 44.6406C220.859 44.7969 220.094 44.9219 219.469 45.0156C218.875 45.0781 218.359 45.1406 217.922 45.2031C217.422 45.2656 217.016 45.3125 216.703 45.3438C216.422 45.375 216.109 45.4062 215.766 45.4375C215.484 45.4688 215.172 45.5156 214.828 45.5781C214.516 45.6094 214.219 45.6562 213.938 45.7188C213.875 47.0625 213.875 48.2344 213.938 49.2344C214 50.2031 214.078 51.0156 214.172 51.6719C214.297 52.4531 214.438 53.125 214.594 53.6875C214.75 54.25 214.969 54.7969 215.25 55.3281C215.469 55.7656 215.75 56.2344 216.094 56.7344C216.438 57.2031 216.828 57.5938 217.266 57.9062C216.453 57.9062 215.672 57.9062 214.922 57.9062C214.203 57.9062 213.547 57.8906 212.953 57.8594C212.266 57.8594 211.609 57.8438 210.984 57.8125C210.359 57.7812 209.656 57.7656 208.875 57.7656C208.219 57.7656 207.438 57.7656 206.531 57.7656C205.656 57.7656 204.703 57.7812 203.672 57.8125C204.484 56.9688 205.125 56.25 205.594 55.6562C206.062 55.0625 206.422 54.5625 206.672 54.1562C206.953 53.7188 207.125 53.3438 207.188 53.0312C207.25 52.5312 207.297 51.6406 207.328 50.3594C207.391 49.0469 207.438 47.5469 207.469 45.8594C207.5 44.1719 207.516 42.4062 207.516 40.5625C207.516 38.7188 207.5 37 207.469 35.4062C207.438 33.7812 207.406 32.3906 207.375 31.2344C207.344 30.0781 207.312 29.3438 207.281 29.0312C207.188 28.4688 206.984 27.9062 206.672 27.3438C206.422 26.8438 206.062 26.2812 205.594 25.6562C205.125 25.0312 204.484 24.4062 203.672 23.7812ZM221.391 40.2812C221.703 40.0938 221.969 39.9062 222.188 39.7188C222.406 39.5312 222.594 39.2344 222.75 38.8281C222.906 38.3906 223.031 37.7812 223.125 37C223.25 36.2188 223.391 35.1562 223.547 33.8125C223.672 32.4688 223.578 31.3594 223.266 30.4844C222.984 29.6094 222.594 28.9219 222.094 28.4219C221.625 27.8906 221.094 27.5312 220.5 27.3438C219.938 27.125 219.438 27.0156 219 27.0156C218.125 27.0156 217.266 27.2812 216.422 27.8125C215.578 28.3438 214.938 29.0625 214.5 29.9688C214.344 30.375 214.203 31.0469 214.078 31.9844C213.984 32.7969 213.922 33.9219 213.891 35.3594C213.859 36.7969 213.906 38.6875 214.031 41.0312C215.219 41.2188 216.266 41.2969 217.172 41.2656C218.078 41.2031 218.844 41.0938 219.469 40.9375C220.219 40.7812 220.859 40.5625 221.391 40.2812ZM241.781 26.2656C243.344 26.3594 244.656 26.4375 245.719 26.5C246.812 26.5312 247.719 26.5625 248.438 26.5938C249.25 26.625 249.938 26.625 250.5 26.5938C251.062 26.5625 251.828 26.4844 252.797 26.3594C253.609 26.2656 254.688 26.125 256.031 25.9375C257.406 25.7188 259.109 25.4375 261.141 25.0938C260.422 25.8125 259.859 26.4688 259.453 27.0625C259.078 27.625 258.781 28.1094 258.562 28.5156C258.312 29.0156 258.141 29.4375 258.047 29.7812C257.984 30.0938 258.047 30.875 258.234 32.125C258.422 33.375 258.688 34.8594 259.031 36.5781C259.375 38.2656 259.75 40.0781 260.156 42.0156C260.562 43.9219 260.969 45.7188 261.375 47.4062C261.781 49.0625 262.141 50.4844 262.453 51.6719C262.797 52.8281 263.047 53.5156 263.203 53.7344C263.672 54.3906 263.969 54.8281 264.094 55.0469C264.219 55.2344 264.438 55.4062 264.75 55.5625C264.875 55.625 265.078 55.7188 265.359 55.8438C265.609 55.9688 265.938 56.125 266.344 56.3125C266.781 56.5 267.328 56.7188 267.984 56.9688C266.766 57.0312 265.719 57.0781 264.844 57.1094C263.969 57.1094 263.25 57.125 262.688 57.1562C262.031 57.1875 261.469 57.2188 261 57.25C260.531 57.25 259.969 57.2812 259.312 57.3438C258.75 57.4062 258.016 57.4688 257.109 57.5312C256.234 57.5938 255.203 57.6562 254.016 57.7188C254.641 57.2812 255.141 56.8906 255.516 56.5469C255.922 56.1719 256.234 55.8594 256.453 55.6094C256.703 55.2969 256.875 55.0156 256.969 54.7656C257.031 54.4844 257.078 54.0625 257.109 53.5C257.141 53 257.141 52.3438 257.109 51.5312C257.078 50.6875 257 49.5938 256.875 48.25L244.547 49.5156C244.234 50.0469 244 50.5156 243.844 50.9219C243.688 51.2969 243.578 51.625 243.516 51.9062C243.422 52.25 243.391 52.5312 243.422 52.75C243.484 53 243.594 53.2969 243.75 53.6406C243.906 53.9531 244.125 54.3281 244.406 54.7656C244.719 55.1719 245.172 55.6562 245.766 56.2188C244.984 56.1875 244.188 56.1719 243.375 56.1719C242.562 56.1719 241.812 56.1875 241.125 56.2188C240.312 56.25 239.516 56.2812 238.734 56.3125C237.953 56.3438 237.062 56.3906 236.062 56.4531C235.219 56.5156 234.234 56.5938 233.109 56.6875C231.953 56.75 230.719 56.8438 229.406 56.9688C230.219 56.5938 230.906 56.2188 231.469 55.8438C232.031 55.4375 232.5 55.0625 232.875 54.7188C233.312 54.3438 233.688 53.9844 234 53.6406C234.219 53.3281 234.656 52.6094 235.312 51.4844C235.969 50.3281 236.703 48.9688 237.516 47.4062C238.359 45.8438 239.234 44.1719 240.141 42.3906C241.078 40.6094 241.922 38.9375 242.672 37.375C243.422 35.7812 244.031 34.4062 244.5 33.25C244.969 32.0938 245.203 31.3438 245.203 31C245.141 30.5938 244.984 30.1406 244.734 29.6406C244.516 29.2031 244.172 28.7031 243.703 28.1406C243.266 27.5781 242.625 26.9531 241.781 26.2656ZM256.312 44.7812C256.125 43.6875 255.953 42.75 255.797 41.9688C255.641 41.1562 255.516 40.4844 255.422 39.9531C255.297 39.3281 255.203 38.7812 255.141 38.3125C255.047 37.875 254.938 37.3125 254.812 36.625C254.688 36.0312 254.531 35.2969 254.344 34.4219C254.188 33.5156 253.984 32.4375 253.734 31.1875C251.953 34.75 250.562 37.5156 249.562 39.4844C248.594 41.4219 247.891 42.8438 247.453 43.75C246.922 44.8125 246.625 45.4375 246.562 45.625L256.312 44.7812Z" fill="#DFCEA8"/>
<path d="M272.094 55.5525L275.375 53.575L278.656 55.5786L277.797 51.8316L280.688 49.3337L276.885 48.9954L275.375 45.4566L273.865 48.9694L270.063 49.3076L272.953 51.8316L272.094 55.5525ZM268.943 59.8979L270.635 52.5862L264.958 47.6684L272.458 47.0178L275.375 40.1224L278.292 47.0178L285.792 47.6684L280.115 52.5862L281.807 59.8979L275.375 56.0209L268.943 59.8979Z" fill="#E6E0E9"/>
<path d="M250.219 71.1648L253.5 69.1872L256.781 71.1908L255.922 67.4439L258.813 64.9459L255.01 64.6076L253.5 61.0689L251.99 64.5816L248.188 64.9199L251.078 67.4439L250.219 71.1648ZM247.068 75.5102L248.76 68.1985L243.083 63.2806L250.583 62.6301L253.5 55.7347L256.417 62.6301L263.917 63.2806L258.24 68.1985L259.932 75.5102L253.5 71.6332L247.068 75.5102Z" fill="#E6E0E9"/>
<path d="M271.273 79.9662L275.375 77.4943L279.477 79.9987L278.402 75.3151L282.016 72.1926L277.263 71.7698L275.375 67.3463L273.487 71.7373L268.734 72.1601L272.348 75.3151L271.273 79.9662ZM267.335 85.398L269.45 76.2583L262.354 70.111L271.729 69.2978L275.375 60.6786L279.021 69.2978L288.396 70.111L281.299 76.2583L283.415 85.398L275.375 80.5517L267.335 85.398Z" fill="#E6E0E9"/>
<path d="M23.6285 10.0167L19.6893 12.3928L15.75 9.98541L16.7817 14.4876L13.3114 17.489L17.876 17.8954L19.6893 22.1475L21.5026 17.9267L26.0671 17.5203L22.5968 14.4876L23.6285 10.0167ZM27.4114 4.79544L25.3793 13.5809L32.1948 19.4899L23.1908 20.2716L19.6893 28.5568L16.1877 20.2716L7.18371 19.4899L13.9992 13.5809L11.9671 4.79544L19.6893 9.45391L27.4114 4.79544Z" fill="#E6E0E9"/>
<path d="M13.6593 32.4189L13.4476 36.0932L10.0783 37.6059L13.5165 38.9593L13.9296 42.6066L16.2606 39.7769L19.8869 40.5014L17.9201 37.3969L19.7145 34.1999L16.1443 35.1204L13.6593 32.4189ZM11.9221 27.5621L16.8032 32.8738L23.7839 31.0447L20.2309 37.342L24.1178 43.3977L17.0662 41.9652L12.4813 47.5561L11.6606 40.3865L4.9428 37.7579L11.5076 34.7651L11.9221 27.5621Z" fill="#E6E0E9"/>
<path d="M42.6588 9.67566L40.8105 12.8583L37.1213 12.686L39.5776 15.4465L38.2988 18.8872L41.6565 17.4154L44.5647 19.6996L44.212 16.0415L47.2569 13.9996L43.6559 13.2083L42.6588 9.67566ZM43.3025 4.55782L45.2584 11.5015L52.3125 13.0226L46.2985 17.0363L47.0314 24.1947L41.387 19.7316L34.7713 22.649L37.2772 15.8815L32.4708 10.5021L39.6795 10.7971L43.3025 4.55782Z" fill="#E6E0E9"/>
</svg>
