<svg width="88" height="88" viewBox="0 0 88 88" fill="none" xmlns="http://www.w3.org/2000/svg">
<g filter="url(#filter0_i_5_85)">
<path d="M4 44C4 21.9086 21.9086 4 44 4C66.0914 4 84 21.9086 84 44C84 66.0914 66.0914 84 44 84C21.9086 84 4 66.0914 4 44Z" fill="white" fill-opacity="0.2"/>
</g>
<g filter="url(#filter1_i_5_85)">
<path d="M4 44C4 21.9086 21.9086 4 44 4V4C66.0914 4 84 21.9086 84 44V44C84 66.0914 66.0914 84 44 84V84C21.9086 84 4 66.0914 4 44V44Z" stroke="#D5BC69" stroke-width="7"/>
</g>
<g filter="url(#filter2_i_5_85)">
<path d="M14 44C14 27.4315 27.4315 14 44 14V14C60.5685 14 74 27.4315 74 44V44C74 60.5685 60.5685 74 44 74V74C27.4315 74 14 60.5685 14 44V44Z" stroke="#B09D5D" stroke-width="6"/>
</g>
<defs>
<filter id="filter0_i_5_85" x="4" y="4" width="80" height="84" filterUnits="userSpaceOnUse" color-interpolation-filters="sRGB">
<feFlood flood-opacity="0" result="BackgroundImageFix"/>
<feBlend mode="normal" in="SourceGraphic" in2="BackgroundImageFix" result="shape"/>
<feColorMatrix in="SourceAlpha" type="matrix" values="0 0 0 0 0 0 0 0 0 0 0 0 0 0 0 0 0 0 127 0" result="hardAlpha"/>
<feOffset dy="4"/>
<feGaussianBlur stdDeviation="2"/>
<feComposite in2="hardAlpha" operator="arithmetic" k2="-1" k3="1"/>
<feColorMatrix type="matrix" values="0 0 0 0 0 0 0 0 0 0 0 0 0 0 0 0 0 0 0.25 0"/>
<feBlend mode="normal" in2="shape" result="effect1_innerShadow_5_85"/>
</filter>
<filter id="filter1_i_5_85" x="0.5" y="0.5" width="87" height="91" filterUnits="userSpaceOnUse" color-interpolation-filters="sRGB">
<feFlood flood-opacity="0" result="BackgroundImageFix"/>
<feBlend mode="normal" in="SourceGraphic" in2="BackgroundImageFix" result="shape"/>
<feColorMatrix in="SourceAlpha" type="matrix" values="0 0 0 0 0 0 0 0 0 0 0 0 0 0 0 0 0 0 127 0" result="hardAlpha"/>
<feOffset dy="4"/>
<feGaussianBlur stdDeviation="2"/>
<feComposite in2="hardAlpha" operator="arithmetic" k2="-1" k3="1"/>
<feColorMatrix type="matrix" values="0 0 0 0 0 0 0 0 0 0 0 0 0 0 0 0 0 0 0.25 0"/>
<feBlend mode="normal" in2="shape" result="effect1_innerShadow_5_85"/>
</filter>
<filter id="filter2_i_5_85" x="11" y="11" width="66" height="70" filterUnits="userSpaceOnUse" color-interpolation-filters="sRGB">
<feFlood flood-opacity="0" result="BackgroundImageFix"/>
<feBlend mode="normal" in="SourceGraphic" in2="BackgroundImageFix" result="shape"/>
<feColorMatrix in="SourceAlpha" type="matrix" values="0 0 0 0 0 0 0 0 0 0 0 0 0 0 0 0 0 0 127 0" result="hardAlpha"/>
<feOffset dy="4"/>
<feGaussianBlur stdDeviation="2"/>
<feComposite in2="hardAlpha" operator="arithmetic" k2="-1" k3="1"/>
<feColorMatrix type="matrix" values="0 0 0 0 0 0 0 0 0 0 0 0 0 0 0 0 0 0 0.25 0"/>
<feBlend mode="normal" in2="shape" result="effect1_innerShadow_5_85"/>
</filter>
</defs>
</svg>
